<svg width="37.7870877px" height="44px" viewBox="0 0 37.7870877 44" version="1.1" xmlns="http://www.w3.org/2000/svg" xmlns:xlink="http://www.w3.org/1999/xlink">
    <defs>
        <path d="M35.117844,15.1280772 C36.1757121,24.6198025 44.2259873,32 54,32 C63.8042055,32 71.8740075,24.574136 72.8917593,15.0400546 C72.9736685,14.272746 72.1167429,13 71.042767,13 C56.1487536,13 44.7379213,13 37.0868244,13 C36.0066168,13 35.0120058,14.1784435 35.117844,15.1280772 Z" id="path-b3iaq566f_-1"></path>
    </defs>
    <g id="Symbols" stroke="none" stroke-width="1" fill="none" fill-rule="evenodd">
        <g id="Mouth/Concerned" transform="translate(-35.1101, -2)">
            <mask id="mask-b3iaq566f_-2" fill="white">
                <use xlink:href="#path-b3iaq566f_-1" transform="translate(54.0036, 22.5) scale(1, -1) translate(-54.0036, -22.5)"></use>
            </mask>
            <use id="Mouth" fill-opacity="0.699999988" fill="#000000" transform="translate(54.0036, 22.5) scale(1, -1) translate(-54.0036, -22.5)" xlink:href="#path-b3iaq566f_-1"></use>
            <path d="M44,2 L65,2 C67.7614237,2 70,4.23857625 70,7 L70,13 C70,15.7614237 67.7614237,18 65,18 L44,18 C41.2385763,18 39,15.7614237 39,13 L39,7 C39,4.23857625 41.2385763,2 44,2 Z" id="Teeth" fill="#FFFFFF" mask="url(#mask-b3iaq566f_-2)"></path>
            <g id="Tongue" mask="url(#mask-b3iaq566f_-2)" fill="#FF4F6D">
                <g transform="translate(38, 24)">
                    <circle id="friend?" cx="11" cy="11" r="11"></circle>
                    <circle id="How-you-doing" cx="21" cy="11" r="11"></circle>
                </g>
            </g>
        </g>
    </g>
</svg>