<svg version="1.1" id="Layer_1" xmlns="http://www.w3.org/2000/svg" xmlns:xlink="http://www.w3.org/1999/xlink" x="0px" y="0px"
	 width="100%" viewBox="0 0 500 500" enable-background="new 0 0 500 500" xml:space="preserve">
<path fill="#FFFFFF" opacity="1.000000" stroke="none" 
	d="
M276.000000,501.000000 
	C184.000015,501.000000 92.500046,501.000000 1.000049,501.000000 
	C1.000033,334.333405 1.000033,167.666794 1.000016,1.000139 
	C167.666565,1.000092 334.333130,1.000092 500.999756,1.000046 
	C500.999847,167.666519 500.999847,334.333038 500.999939,500.999786 
	C426.166656,501.000000 351.333344,501.000000 276.000000,501.000000 
M246.739761,370.096375 
	C262.206726,370.108093 277.673828,370.163513 293.140656,370.116943 
	C304.437317,370.082947 315.733612,369.914673 327.870056,369.825409 
	C343.848907,369.334839 356.990051,356.465668 357.065918,340.221527 
	C357.286072,293.068329 357.292328,245.912674 357.061676,198.759567 
	C356.981354,182.337326 343.099915,169.321060 326.643494,169.315674 
	C280.155731,169.300446 233.667984,169.301758 187.180237,169.315414 
	C169.654175,169.320557 156.353989,182.723831 156.354019,200.324753 
	C156.354065,245.312897 156.601105,290.303284 156.195709,335.287750 
	C156.084686,347.607391 159.969681,357.307037 168.923264,365.564911 
	C167.195221,367.003571 165.467178,368.442230 163.521133,370.062378 
	C173.025345,381.881104 182.162079,393.242859 191.447662,404.789734 
	C192.936264,403.678986 194.242599,402.922852 195.278748,401.894501 
	C200.696259,396.517792 207.205704,393.307617 214.313721,390.530212 
	C221.174698,387.849304 227.509598,383.648529 233.749435,379.611298 
	C238.043121,376.833221 241.780319,373.195099 246.739761,370.096375 
z"/>
<path fill="#F17134" opacity="1.000000" stroke="none" 
	d="
M169.351562,365.002991 
	C159.969681,357.307037 156.084686,347.607391 156.195709,335.287750 
	C156.601105,290.303284 156.354065,245.312897 156.354019,200.324753 
	C156.353989,182.723831 169.654175,169.320557 187.180237,169.315414 
	C233.667984,169.301758 280.155731,169.300446 326.643494,169.315674 
	C343.099915,169.321060 356.981354,182.337326 357.061676,198.759567 
	C357.292328,245.912674 357.286072,293.068329 357.065918,340.221527 
	C356.990051,356.465668 343.848907,369.334839 327.118530,369.563599 
	C324.557220,369.201996 322.747620,369.018707 320.937653,369.015015 
	C296.251801,368.964752 271.565887,368.939331 247.050232,368.618469 
	C254.821854,362.546082 262.513184,356.875977 269.983429,350.928162 
	C273.297211,348.289734 276.652008,345.442749 279.103821,342.051147 
	C281.834015,338.274414 279.973053,335.464722 275.240631,334.638611 
	C276.523041,330.986084 277.702148,327.662476 279.035431,324.017883 
	C279.463409,321.542725 279.737183,319.388580 280.352020,316.953796 
	C281.770508,303.266113 279.928558,290.571716 271.764130,279.361542 
	C264.481995,269.362793 252.710419,268.300751 243.906158,276.962311 
	C238.003952,282.768921 235.226410,290.153687 233.312012,298.298889 
	C230.675720,300.965942 228.309830,303.482605 225.724106,305.748444 
	C218.241287,312.305450 210.710236,318.809540 203.084015,325.198181 
	C202.102859,326.020111 200.447784,326.037537 199.104889,326.427643 
	C199.090042,325.050690 198.757584,323.584045 199.116516,322.312622 
	C200.508377,317.382111 202.277435,312.555847 203.601807,307.609314 
	C204.717285,303.442932 203.570129,299.716370 200.311234,296.775482 
	C196.857300,293.658600 193.883041,294.313629 192.242035,298.666962 
	C190.604004,303.012299 189.521774,307.600433 187.561249,311.784729 
	C181.751709,324.183868 176.410233,336.459747 177.660416,350.832306 
	C178.155228,356.520721 175.489792,362.253357 169.351562,365.002991 
M205.196014,217.687180 
	C204.081406,218.515015 202.051224,219.311096 202.021210,220.176544 
	C201.925369,222.939835 202.467331,225.747528 202.957825,228.503403 
	C203.615097,232.196304 205.916565,232.459412 209.261597,231.902618 
	C213.720612,231.160416 218.344513,230.696701 222.834015,231.013763 
	C229.857773,231.509796 231.828293,230.427963 232.943695,223.462784 
	C233.324158,221.086929 233.278961,218.642899 233.466446,215.613022 
	C223.871277,216.322998 214.985962,216.980469 205.196014,217.687180 
M303.161560,231.302658 
	C305.135864,231.259003 308.100250,232.021774 308.909027,231.028809 
	C312.019928,227.209274 311.468719,222.536972 310.921997,217.861328 
	C300.277832,217.117950 290.176758,216.412491 279.933685,215.697128 
	C279.933685,218.227600 279.826782,219.720932 279.951141,221.194748 
	C280.710815,230.196793 283.351166,232.071915 292.103088,230.794876 
	C295.428345,230.309662 298.918213,230.952682 303.161560,231.302658 
z"/>
<path fill="#F4BC34" opacity="1.000000" stroke="none" 
	d="
M275.137329,334.967560 
	C279.973053,335.464722 281.834015,338.274414 279.103821,342.051147 
	C276.652008,345.442749 273.297211,348.289734 269.983429,350.928162 
	C262.513184,356.875977 254.821854,362.546082 246.825317,368.742371 
	C246.208847,369.417511 245.987549,369.679443 245.766235,369.941376 
	C241.780319,373.195099 238.043121,376.833221 233.749435,379.611298 
	C227.509598,383.648529 221.174698,387.849304 214.313721,390.530212 
	C207.205704,393.307617 200.696259,396.517792 195.278748,401.894501 
	C194.242599,402.922852 192.936264,403.678986 191.447662,404.789734 
	C182.162079,393.242859 173.025345,381.881104 163.521133,370.062378 
	C165.467178,368.442230 167.195221,367.003571 169.137421,365.283936 
	C175.489792,362.253357 178.155228,356.520721 177.660416,350.832306 
	C176.410233,336.459747 181.751709,324.183868 187.561249,311.784729 
	C189.521774,307.600433 190.604004,303.012299 192.242035,298.666962 
	C193.883041,294.313629 196.857300,293.658600 200.311234,296.775482 
	C203.570129,299.716370 204.717285,303.442932 203.601807,307.609314 
	C202.277435,312.555847 200.508377,317.382111 199.116516,322.312622 
	C198.757584,323.584045 199.090042,325.050690 199.104889,326.427643 
	C200.447784,326.037537 202.102859,326.020111 203.084015,325.198181 
	C210.710236,318.809540 218.241287,312.305450 225.724106,305.748444 
	C228.309830,303.482605 230.675720,300.965942 233.689453,298.276825 
	C238.208359,294.734131 242.170319,291.466797 246.154160,288.226410 
	C249.645416,285.386658 253.906311,285.091492 255.970520,287.775482 
	C258.663849,291.277527 256.573425,294.078552 254.055511,296.453430 
	C247.047531,303.063324 239.929428,309.556458 232.574188,316.261230 
	C231.582672,317.087189 230.571320,317.619263 230.223114,318.434540 
	C229.486023,320.160400 229.095032,322.034088 228.562073,323.847107 
	C230.196381,323.150391 231.830704,322.453644 233.718216,321.579956 
	C239.767593,316.952087 245.570847,312.510284 251.357819,308.047394 
	C256.497833,304.083466 261.545410,299.994568 266.779510,296.159668 
	C269.625153,294.074738 272.497101,294.614838 274.719604,297.364838 
	C276.884277,300.043274 276.366943,302.596558 273.943756,304.870544 
	C272.487061,306.237579 271.075073,307.661255 269.537048,308.931152 
	C260.293884,316.562927 250.983521,324.113983 241.797318,331.813354 
	C240.480774,332.916840 239.714066,334.676331 238.692902,336.132202 
	C239.165649,336.555511 239.638397,336.978851 240.111160,337.402161 
	C241.620667,336.538269 243.213120,335.791534 244.626099,334.791290 
	C253.186203,328.731598 261.719971,322.634430 270.231049,316.506042 
	C273.739014,313.980103 277.058990,312.838593 280.010986,317.234467 
	C279.737183,319.388580 279.463409,321.542725 278.787933,324.196075 
	C268.909302,332.090057 259.432312,339.484833 249.624268,346.966461 
	C248.593292,347.477356 247.634872,347.740997 247.250351,348.360687 
	C246.567551,349.461151 246.232727,350.777527 245.752319,352.003540 
	C247.077103,351.859863 248.570786,352.052338 249.686234,351.491943 
	C251.268295,350.697083 252.571716,349.347565 254.336777,348.124939 
	C261.498657,343.665710 268.317993,339.316620 275.137329,334.967560 
z"/>
<path fill="#C0643A" opacity="1.000000" stroke="none" 
	d="
M246.252991,370.018860 
	C245.987549,369.679443 246.208847,369.417511 246.655075,369.031677 
	C271.565887,368.939331 296.251801,368.964752 320.937653,369.015015 
	C322.747620,369.018707 324.557220,369.201996 326.698517,369.554016 
	C315.733612,369.914673 304.437317,370.082947 293.140656,370.116943 
	C277.673828,370.163513 262.206726,370.108093 246.252991,370.018860 
z"/>
<path fill="#FEFCF9" opacity="1.000000" stroke="none" 
	d="
M232.854813,316.095673 
	C239.929428,309.556458 247.047531,303.063324 254.055511,296.453430 
	C256.573425,294.078552 258.663849,291.277527 255.970520,287.775482 
	C253.906311,285.091492 249.645416,285.386658 246.154160,288.226410 
	C242.170319,291.466797 238.208359,294.734131 233.859451,298.011841 
	C235.226410,290.153687 238.003952,282.768921 243.906158,276.962311 
	C252.710419,268.300751 264.481995,269.362793 271.764130,279.361542 
	C279.928558,290.571716 281.770508,303.266113 280.352020,316.953796 
	C277.058990,312.838593 273.739014,313.980103 270.231049,316.506042 
	C261.719971,322.634430 253.186203,328.731598 244.626099,334.791290 
	C243.213120,335.791534 241.620667,336.538269 240.111160,337.402161 
	C239.638397,336.978851 239.165649,336.555511 238.692902,336.132202 
	C239.714066,334.676331 240.480774,332.916840 241.797318,331.813354 
	C250.983521,324.113983 260.293884,316.562927 269.537048,308.931152 
	C271.075073,307.661255 272.487061,306.237579 273.943756,304.870544 
	C276.366943,302.596558 276.884277,300.043274 274.719604,297.364838 
	C272.497101,294.614838 269.625153,294.074738 266.779510,296.159668 
	C261.545410,299.994568 256.497833,304.083466 251.357819,308.047394 
	C245.570847,312.510284 239.767593,316.952087 233.662872,321.170380 
	C233.187820,319.323700 233.021317,317.709686 232.854813,316.095673 
z"/>
<path fill="#FDFBFA" opacity="1.000000" stroke="none" 
	d="
M205.648346,217.662552 
	C214.985962,216.980469 223.871277,216.322998 233.466446,215.613022 
	C233.278961,218.642899 233.324158,221.086929 232.943695,223.462784 
	C231.828293,230.427963 229.857773,231.509796 222.834015,231.013763 
	C218.344513,230.696701 213.720612,231.160416 209.261597,231.902618 
	C205.916565,232.459412 203.615097,232.196304 202.957825,228.503403 
	C202.467331,225.747528 201.925369,222.939835 202.021210,220.176544 
	C202.051224,219.311096 204.081406,218.515015 205.648346,217.662552 
z"/>
<path fill="#FDFBFA" opacity="1.000000" stroke="none" 
	d="
M302.747314,231.192062 
	C298.918213,230.952682 295.428345,230.309662 292.103088,230.794876 
	C283.351166,232.071915 280.710815,230.196793 279.951141,221.194748 
	C279.826782,219.720932 279.933685,218.227600 279.933685,215.697128 
	C290.176758,216.412491 300.277832,217.117950 310.921997,217.861328 
	C311.468719,222.536972 312.019928,227.209274 308.909027,231.028809 
	C308.100250,232.021774 305.135864,231.259003 302.747314,231.192062 
z"/>
<path fill="#FCF9F2" opacity="1.000000" stroke="none" 
	d="
M249.955368,346.879608 
	C259.432312,339.484833 268.909302,332.090057 278.633759,324.517090 
	C277.702148,327.662476 276.523041,330.986084 275.240631,334.638611 
	C268.317993,339.316620 261.498657,343.665710 253.990784,348.038513 
	C252.186615,347.668030 251.070999,347.273804 249.955368,346.879608 
z"/>
<path fill="#F17134" opacity="1.000000" stroke="none" 
	d="
M232.574188,316.261230 
	C233.021317,317.709686 233.187820,319.323700 233.409668,321.347290 
	C231.830704,322.453644 230.196381,323.150391 228.562073,323.847107 
	C229.095032,322.034088 229.486023,320.160400 230.223114,318.434540 
	C230.571320,317.619263 231.582672,317.087189 232.574188,316.261230 
z"/>
<path fill="#F17134" opacity="1.000000" stroke="none" 
	d="
M249.624268,346.966461 
	C251.070999,347.273804 252.186615,347.668030 253.648224,348.148651 
	C252.571716,349.347565 251.268295,350.697083 249.686234,351.491943 
	C248.570786,352.052338 247.077103,351.859863 245.752319,352.003540 
	C246.232727,350.777527 246.567551,349.461151 247.250351,348.360687 
	C247.634872,347.740997 248.593292,347.477356 249.624268,346.966461 
z"/>
</svg>