<svg width="264px" height="280px" viewBox="0 0 264 280" version="1.1" xmlns="http://www.w3.org/2000/svg" xmlns:xlink="http://www.w3.org/1999/xlink">
    <defs>
        <path d="M58.7960476,67.8410391 C47.4217257,68.2191416 42.3478682,73.7213834 38.5267555,68.1296214 C35.6588018,63.9323547 36.8588122,56.8739117 39.5385756,52.9027173 C43.3515503,47.2512381 48.524243,49.9847769 54.3079611,49.3400279 C55.8806224,49.1648137 57.4604044,48.7228407 58.7960476,48 C60.1316908,48.7228407 61.7111337,49.1648137 63.2837951,49.3400279 C69.0678522,49.9847769 74.2402058,47.2512381 78.0535196,52.9027173 C80.7329439,56.8739117 81.9329544,63.9323547 79.0650006,68.1296214 C75.2438879,73.7213834 70.1703695,67.4629366 58.7960476,67.8410391 Z M114.017387,0 C110.633586,14.0748212 109.078821,28.4337754 106.625302,42.6711471 C106.114054,45.6390145 105.554325,48.5963095 104.960015,51.5496398 C104.835254,52.1697764 104.712188,54.4725746 104.108386,54.7643064 C102.27935,55.6484223 98.5517785,50.9466834 97.5550472,49.8851496 C95.0516921,47.219256 92.5696956,44.5292442 89.5208504,42.437233 C83.3604407,38.2102603 76.1480387,35.7108818 68.6430588,35.117837 C65.5030161,34.8693859 61.2570764,35.3025234 58.2977336,37.1104016 C55.3383909,35.3025234 51.0924512,34.8693859 47.9520695,35.117837 C40.4470896,35.7108818 33.2346876,38.2102603 27.0742778,42.437233 C24.0254327,44.5292442 21.5437752,47.219256 19.040081,49.8851496 C18.0433497,50.9466834 14.315778,55.6484223 12.4867422,54.7643064 C11.88294,54.4725746 11.7598742,52.1697764 11.6351133,51.5496398 C11.0408037,48.5963095 10.4810747,45.6390145 9.96982612,42.6711471 C7.51664662,28.4337754 5.96188138,14.0748212 2.5780803,0 C1.59355386,0 0.729720058,18.7478165 0.619876199,20.4945731 C0.172703207,27.5889755 -0.349394145,34.5254529 0.317805588,41.6261326 C1.46811489,53.8749043 2.66724367,69.2339402 11.8893815,78.5875297 C20.2222586,87.0394927 32.3208968,88.8064167 42.7561838,94.1413272 C44.0997369,94.828202 45.8819874,95.6763057 47.8039159,96.3711098 C49.8285687,97.9341712 53.843972,99 58.4696189,99 C63.3217341,99 67.5022422,97.8274562 69.4177292,96.1378565 C71.0982724,95.4926105 72.6428669,94.7528737 73.8389445,94.1413272 C84.273433,88.805245 96.3728697,87.0394927 104.705747,78.5875297 C113.927885,69.2339402 115.127013,53.8749043 116.277662,41.6261326 C116.944522,34.5254529 116.422425,27.5889755 115.975591,20.4945731 C115.865408,18.7478165 115.001574,0 114.017387,0 Z" id="path-ykd01mhxix-1"></path>
        <path d="M86,0 C115.850571,0 167.918252,44.1482824 168.000151,91.3235294 C168.044199,116.801277 158.377483,132.360101 139,138 C145.115031,82.1102588 107.402843,69.4138942 83.9702592,55.8163276 C60.5120434,69.4137349 22.8617466,82.1099083 29.0002187,138 C9.62244645,132.999216 -0.0442710553,117.440393 6.61437384e-05,91.3235294 C0.0804892181,44.1482783 52.0737254,0 82.0002187,0 C82.6683765,0 83.3326638,0.0296272423 83.9914566,0.0880458459 C84.6556388,0.0296490547 85.3257817,0 86,0 Z" id="path-ykd01mhxix-3"></path>
    </defs>
    <g id="Symbols" stroke="none" stroke-width="1" fill="none" fill-rule="evenodd">
        <g id="Top/Accesories/Turban" transform="translate(-1, 0)">
            <g id="Facial-Hair" transform="translate(74.7024, 98)">
                <mask id="mask-ykd01mhxix-2" fill="white">
                    <use xlink:href="#path-ykd01mhxix-1"></use>
                </mask>
                <use id="Beardness" fill="#252E32" xlink:href="#path-ykd01mhxix-1"></use>
                <g id="â†³-âœ‚ï¸-Facial-Hair-Color" mask="url(#mask-ykd01mhxix-2)" fill="#724133">
                    <g transform="translate(-24.7024, -26)" id="Color">
                        <rect x="0" y="0" width="166" height="152"></rect>
                    </g>
                </g>
            </g>
            <g id="Turban" transform="translate(1, 0)">
                <path d="M132,57 C164.5848,57 191,71.7746033 191,90 C191,92.579787 190.470742,95.0904336 189.469644,97.4998241 C183.397224,82.8874705 159.971815,72 132,72 C104.027546,72 80.6017061,82.8879678 74.5303563,97.5001759 C73.5294049,95.0911291 73,92.5801444 73,90 C73,71.7746033 99.4151998,57 132,57 Z" id="Band" fill="#EDECE3"></path>
                <g transform="translate(48, 3)">
                    <mask id="mask-ykd01mhxix-4" fill="white">
                        <use xlink:href="#path-ykd01mhxix-3"></use>
                    </mask>
                    <use id="Turban-Mask" fill="#124C74" xlink:href="#path-ykd01mhxix-3"></use>
                    <g id="â†³-ðŸŽ¨Turban-Color" mask="url(#mask-ykd01mhxix-4)" fill="#25557C">
                        <g transform="translate(-48, -3)" id="ðŸ–Color">
                            <rect x="0" y="0" width="264" height="280"></rect>
                        </g>
                    </g>
                </g>
                <path d="M48.0000661,97.0294118 L48.012193,96.0944187 C48.4018267,121.14477 58.0645019,136.113297 77.0002187,141 C57.6224465,136.289117 47.9557289,121.632254 48.0000661,97.0294118 Z M148.000219,50.135763 C136.876771,71.5104523 76.8779193,72.0015399 76.3370145,129.226222 C76.4044891,67.7592437 136.832956,67.3235487 148.000219,44.5441176 C150.669276,39.5679117 152.14065,34.8372142 152.645488,30.4709975 C153.389794,36.1969843 152.125686,42.8901052 148.000219,50.135763 Z" id="Shadow" fill-opacity="0.16" fill="#000000"></path>
            </g>
        </g>
    </g>
</svg>