<svg width="168px" height="250px" viewBox="0 0 168 250" version="1.1" xmlns="http://www.w3.org/2000/svg" xmlns:xlink="http://www.w3.org/1999/xlink">
    <defs>
        <path d="M32.4485915,77.5347425 C26.3649028,77.5347425 22.6330986,80.4596103 22.6330986,86.5347425 L22.6330986,165.988782 C22.6330986,196.446757 0,196.404852 0,176.910255 L0,103.04488 C0,68.8032255 17.2273451,21 72,21 L73.6319364,21.0142796 C127.115479,21.9547084 144,69.1456421 144,103.04488 L144,176.910255 C144,196.404852 121.366901,196.446757 121.366901,165.988782 L121.366901,86.5347425 C121.366901,80.4596103 117.635097,77.5347425 111.551408,77.5347425 L32.4485915,77.5347425 Z" id="path-z614mnl1kq-1"></path>
    </defs>
    <g id="Symbols" stroke="none" stroke-width="1" fill="none" fill-rule="evenodd">
        <g id="Top/Accessories/Winter-Hat-2" transform="translate(-49, 0)">
            <g id="hat" transform="translate(61, 0)">
                <g id="string" transform="translate(0, 176)" fill="#F4F4F4">
                    <circle id="puff" cx="9" cy="65" r="9"></circle>
                    <rect x="8" y="0" width="2" height="58"></rect>
                </g>
                <g id="string" transform="translate(126, 168)" fill="#F4F4F4">
                    <circle id="puff" cx="9" cy="65" r="9"></circle>
                    <rect x="8" y="0" width="2" height="58"></rect>
                </g>
                <circle id="puff" fill="#F4F4F4" cx="72" cy="20" r="20"></circle>
                <mask id="mask-z614mnl1kq-2" fill="white">
                    <use xlink:href="#path-z614mnl1kq-1"></use>
                </mask>
                <use id="Combined-Shape" fill="#F4F4F4" xlink:href="#path-z614mnl1kq-1"></use>
                <g id="ðŸŽ¨-Hat-Color" mask="url(#mask-z614mnl1kq-2)" fill="#65C9FF">
                    <g transform="translate(-2, 19)" id="ðŸ–Color">
                        <rect x="0" y="0" width="149" height="172"></rect>
                    </g>
                </g>
                <rect id="color-dark" fill-opacity="0.2" fill="#000000" mask="url(#mask-z614mnl1kq-2)" x="-1" y="21" width="146" height="46"></rect>
                <g id="light-triangles" mask="url(#mask-z614mnl1kq-2)" fill="#FFFFFF" fill-opacity="0.5">
                    <g transform="translate(29, 32)" id="Triangle">
                        <polygon transform="translate(12.5, 9) rotate(180) translate(-12.5, -9)" points="12.5 0 25 18 0 18"></polygon>
                        <polygon transform="translate(43.5, 9) rotate(180) translate(-43.5, -9)" points="43.5 0 56 18 31 18"></polygon>
                        <polygon transform="translate(74.5, 9) rotate(180) translate(-74.5, -9)" points="74.5 0 87 18 62 18"></polygon>
                    </g>
                </g>
                <g id="dark-triangles" mask="url(#mask-z614mnl1kq-2)" fill="#000000" fill-opacity="0.5">
                    <g transform="translate(13, 41)" id="Triangle">
                        <polygon points="12.5 0 25 18 0 18"></polygon>
                        <polygon points="43.5 0 56 18 31 18"></polygon>
                        <polygon points="74.5 0 87 18 62 18"></polygon>
                        <polygon points="105.5 0 118 18 93 18"></polygon>
                    </g>
                </g>
            </g>
        </g>
    </g>
</svg>