<svg width="168px" height="220px" viewBox="0 0 168 220" version="1.1" xmlns="http://www.w3.org/2000/svg" xmlns:xlink="http://www.w3.org/1999/xlink">
    <defs>
        <path d="M73,-7.10542736e-15 C85.7219537,-9.44241233e-15 97.5342942,3.89451668 107.309847,10.5563754 C117.203155,4.65354893 125.906598,2.84119251 133.419297,5.12029235 C137.342181,13.7864707 136.088687,24.8654742 129.658817,38.3573029 C132.459583,45.3577133 134,52.9989648 134,61 L134,69 L2,69 L2,61 C2,52.9746294 3.54980175,45.3112343 6.36644521,38.2927749 C-0.0371877014,24.830427 -1.28052214,13.7727611 2.63615554,5.12029235 C10.1413088,2.84348155 18.8348158,4.64991255 28.7166765,10.5395853 C38.486587,3.88763544 50.2892906,-5.54881439e-15 63,-7.10542736e-15 L73,-7.10542736e-15 Z" id="path-9ianyjvtz--1"></path>
        <path d="M107.677442,10.3390625 C117.419381,4.60911733 125.999999,2.86952727 133.419297,5.12029235 C137.342181,13.7864707 136.088687,24.8654742 129.658817,38.3573029 C125.120783,27.0107832 117.273218,17.3462285 107.309847,10.5563754 Z M28.7166765,10.5395853 L28.5059632,10.6823903 C18.6487145,17.4527497 10.8806015,27.044485 6.36644521,38.2927749 C-0.0371877014,24.830427 -1.28052214,13.7727611 2.63615554,5.12029235 C10.1413088,2.84348155 18.8348158,4.64991255 28.7166765,10.5395853 Z" id="path-9ianyjvtz--3"></path>
        <path d="M21.8611602,15.9589276 L21.211192,16.562208 C17.0135267,20.5111528 13.3754262,25.0481848 10.4284992,30.0416954 C7.50362993,21.9329304 7.00274925,16.3216092 8.92709323,13.2081228 C11.5781533,12.0616266 15.8895089,12.9785616 21.8611602,15.9589276 Z M114.219025,15.8345763 C119.948776,13.0381328 124.104348,12.1980946 126.68574,13.3144617 C128.572237,16.3667136 128.127967,21.819514 125.352931,29.6728628 C122.278019,24.5465243 118.471615,19.9084275 114.077772,15.9038065 Z" id="path-9ianyjvtz--5"></path>
        <path d="M67.2831715,61.4524654 C83.2283986,49.8174885 105.158345,44 133.073012,44 C160.98403,44 182.86943,49.8159681 198.729211,61.4479044 L198.729937,61.4469139 C200.785559,62.9538936 202.000058,65.3502108 202,67.8990479 L202,98.3736572 C201.999132,100.582796 200.207568,102.372954 197.998429,102.372086 C197.243619,102.37179 196.504296,102.15793 195.86589,101.755218 C179.224574,91.2511861 158.537036,86 133.804323,86 C108.884512,86 87.6425297,91.3309351 70.0783764,101.992805 L70.0776323,101.991581 C68.1898648,103.139026 65.7293393,102.538876 64.5818947,100.651108 C64.2013113,100.024975 64.0000243,99.3063335 64,98.5736084 L64,67.9144287 C64.0001613,65.3599175 65.2202494,62.9590777 67.2836125,61.4530696 Z" id="path-9ianyjvtz--7"></path>
        <filter x="-0.7%" y="-1.7%" width="101.4%" height="106.8%" filterUnits="objectBoundingBox" id="filter-9ianyjvtz--8">
            <feOffset dx="0" dy="2" in="SourceAlpha" result="shadowOffsetOuter1"></feOffset>
            <feColorMatrix values="0 0 0 0 0   0 0 0 0 0   0 0 0 0 0  0 0 0 0.1 0" type="matrix" in="shadowOffsetOuter1"></feColorMatrix>
        </filter>
    </defs>
    <g id="Symbols" stroke="none" stroke-width="1" fill="none" fill-rule="evenodd">
        <g id="Top/Accessories/Winter-Hat-4" transform="translate(-49, -4)">
            <g id="hat" transform="translate(65, 4)">
                <mask id="mask-9ianyjvtz--2" fill="white">
                    <use xlink:href="#path-9ianyjvtz--1"></use>
                </mask>
                <use id="hat-mask" fill="#D8D8D8" xlink:href="#path-9ianyjvtz--1"></use>
                <g id="ðŸŽ¨-Hat-Color" mask="url(#mask-9ianyjvtz--2)" fill="#FF5C5C">
                    <g transform="translate(-22, -4)" id="ðŸ–Color">
                        <rect x="0" y="0" width="180.485714" height="191"></rect>
                    </g>
                </g>
                <mask id="mask-9ianyjvtz--4" fill="white">
                    <use xlink:href="#path-9ianyjvtz--3"></use>
                </mask>
                <use id="shadow" fill-opacity="0.24" fill="#000000" xlink:href="#path-9ianyjvtz--3"></use>
                <mask id="mask-9ianyjvtz--6" fill="white">
                    <use xlink:href="#path-9ianyjvtz--5"></use>
                </mask>
                <use id="light" fill-opacity="0.300000012" fill="#FFFFFF" xlink:href="#path-9ianyjvtz--5"></use>
            </g>
            <g id="hat-front">
                <use fill="black" fill-opacity="1" filter="url(#filter-9ianyjvtz--8)" xlink:href="#path-9ianyjvtz--7"></use>
                <use fill="#F4F4F4" fill-rule="evenodd" xlink:href="#path-9ianyjvtz--7"></use>
            </g>
        </g>
    </g>
</svg>