<svg width="200px" height="244px" viewBox="0 0 200 244" version="1.1" xmlns="http://www.w3.org/2000/svg" xmlns:xlink="http://www.w3.org/1999/xlink">
    <defs>
        <path d="M100,0 C130.927946,-5.68137151e-15 156,25.072054 156,56 L156.000809,62.1660527 C161.675838,63.1185422 166,68.05429 166,74 L166,88 C166,94.0524166 161.519235,99.0582945 155.693975,99.8813638 C153.627673,119.686433 141.238043,136.42145 124.001396,144.610287 L124,163 L128,163 C167.764502,163 200,195.235498 200,235 L200,244 L0,244 L0,235 C-4.86974701e-15,195.235498 32.235498,163 72,163 L76,163 L75.9999836,144.610943 C58.7623143,136.422213 46.3717748,119.686398 44.3050264,99.8801617 C38.4802515,99.0577208 34,94.0520698 34,88 L34,74 C34,68.053942 38.3246685,63.1179645 44.0001873,62.1658855 L44,56 C44,25.072054 69.072054,3.78758101e-15 100,0 Z" id="path-glwbz3b90y-1"></path>
    </defs>
    <g id="Symbols" stroke="none" stroke-width="1" fill="none" fill-rule="evenodd">
        <g id="Avataaar/Default" transform="translate(-32, -36)">
            <g id="Body" transform="translate(32, 36)">
                <mask id="mask-glwbz3b90y-2" fill="white">
                    <use xlink:href="#path-glwbz3b90y-1"></use>
                </mask>
                <use fill="#D0C6AC" xlink:href="#path-glwbz3b90y-1"></use>
                <g id="🎨-Skin" mask="url(#mask-glwbz3b90y-2)" fill="#D08B5B">
                    <g transform="translate(-32, 0)" id="Color">
                        <rect x="0" y="0" width="264" height="244"></rect>
                    </g>
                </g>
                <path d="M44,94 C44,124.927946 69.072054,150 100,150 C130.927946,150 156,124.927946 156,94 L156,102 C156,132.927946 130.927946,158 100,158 C69.072054,158 44,132.927946 44,102 Z" id="Neck-Shadow" fill-opacity="0.100000001" fill="#000000" mask="url(#mask-glwbz3b90y-2)"></path>
            </g>
        </g>
    </g>
</svg>