<svg width="264px" height="110px" viewBox="0 0 264 110" version="1.1" xmlns="http://www.w3.org/2000/svg" xmlns:xlink="http://www.w3.org/1999/xlink">
    <defs>
        <path d="M160,29.0517235 C199.764502,29.0517235 232,61.2872215 232,101.051724 L232,110 L32,110 L32,101.051724 C32,61.2872215 64.235498,29.0517235 104,29.0517235 L105.192363,29.0520252 C105.065349,30.0355191 105,31.0365551 105,32.0517235 C105,45.8588423 117.088312,57.0517235 132,57.0517235 C146.911688,57.0517235 159,45.8588423 159,32.0517235 C159,31.0365551 158.934651,30.0355191 158.807637,29.0520252 L160,29.0517235 Z" id="path--9z8ow2eh3-1"></path>
    </defs>
    <g id="Symbols" stroke="none" stroke-width="1" fill="none" fill-rule="evenodd">
        <g id="Clothing/Collar-+-Sweater">
            <mask id="mask--9z8ow2eh3-2" fill="white">
                <use xlink:href="#path--9z8ow2eh3-1"></use>
            </mask>
            <use id="Clothes" fill="#E6E6E6" xlink:href="#path--9z8ow2eh3-1"></use>
            <g id="â†³-Color-Fabric" mask="url(#mask--9z8ow2eh3-2)" fill="#E6E6E6">
                <rect id="ðŸ–Color" x="0" y="0" width="264" height="110"></rect>
            </g>
            <path d="M118.07795,50.9956082 L117.994,51.0604994 L119,54.207887 L114.42,53.8754994 L108.308702,58.6917545 C101.492447,54.1669919 97.1650762,47.6759622 97.004622,40.4447893 L97,40.027915 C97,32.7399202 101.232581,26.1742662 107.999601,21.5717708 L108,36.8768102 C108,42.7004148 111.977587,47.8531513 118.07795,50.9956082 Z M156.000973,22.2802074 C162.182048,26.8358435 166,33.1060895 166,40.027915 C166,47.2334229 161.862687,53.7328485 155.229194,58.3270307 L149.58,53.8754994 L145,54.207887 L146,51.0567821 L146.006,51.0604994 L145.923049,50.9950934 C152.022847,47.8525885 156,42.7000968 156,36.8768102 Z" id="Collar" fill="#F2F2F2"></path>
        </g>
    </g>
</svg>