<svg width="80px" height="16px" viewBox="0 0 80 16" version="1.1" xmlns="http://www.w3.org/2000/svg" xmlns:xlink="http://www.w3.org/1999/xlink">
    <defs>
        <path d="M14,14.0481187 C23.6099827,14.0481187 28,18.4994466 28,11.5617716 C28,4.62409673 21.7319865,0 14,0 C6.2680135,0 0,4.62409673 0,11.5617716 C0,18.4994466 4.39001726,14.0481187 14,14.0481187 Z" id="path-rpj9oimezy-1"></path>
        <path d="M14,14.0481187 C23.6099827,14.0481187 28,18.4994466 28,11.5617716 C28,4.62409673 21.7319865,0 14,0 C6.2680135,0 0,4.62409673 0,11.5617716 C0,18.4994466 4.39001726,14.0481187 14,14.0481187 Z" id="path-rpj9oimezy-3"></path>
    </defs>
    <g id="Symbols" stroke="none" stroke-width="1" fill="none" fill-rule="evenodd">
        <g id="Eyes/Squint-😊" transform="translate(-16, -13)">
            <g id="Eye" transform="translate(16, 13)">
                <mask id="mask-rpj9oimezy-2" fill="white">
                    <use xlink:href="#path-rpj9oimezy-1"></use>
                </mask>
                <use id="The-white-stuff" fill="#FFFFFF" xlink:href="#path-rpj9oimezy-1"></use>
                <circle fill-opacity="0.699999988" fill="#000000" mask="url(#mask-rpj9oimezy-2)" cx="14" cy="10" r="6"></circle>
            </g>
            <g id="Eye" transform="translate(68, 13)">
                <mask id="mask-rpj9oimezy-4" fill="white">
                    <use xlink:href="#path-rpj9oimezy-3"></use>
                </mask>
                <use id="Eyeball-Mask" fill="#FFFFFF" xlink:href="#path-rpj9oimezy-3"></use>
                <circle fill-opacity="0.699999988" fill="#000000" mask="url(#mask-rpj9oimezy-4)" cx="14" cy="10" r="6"></circle>
            </g>
        </g>
    </g>
</svg>