<svg width="232px" height="224px" viewBox="0 0 232 224" version="1.1" xmlns="http://www.w3.org/2000/svg" xmlns:xlink="http://www.w3.org/1999/xlink">
    <defs>
        <path d="M116,0 C127.210295,0 137.907689,2.19599113 147.685474,6.18126605 C148.608025,6.06209822 149.547667,6 150.5,6 C157.20097,6 163.273609,9.07451734 167.696813,14.0565753 C185.740003,14.9903952 201.159264,27.3683293 208.469999,44.9556796 C216.492548,49.5550466 222,59.0424751 222,70 C222,70.5793925 221.984602,71.1546748 221.954247,71.7253415 C228.260937,81.2641732 232,93.1343029 232,106 C232,113.33094 230.786009,120.338641 228.574705,126.776091 C228.853754,128.467881 229,130.214422 229,132 C229,141.455043 224.899348,149.815506 218.619686,154.885227 C211.258904,172.684098 195.389647,185 177,185 C175.501952,185 174.020629,184.918272 172.559267,184.75851 C167.111226,189.9064 160.121728,193 152.5,193 C148.058747,193 143.832168,191.949567 140.000102,190.054233 L140.001014,180.610469 C157.531251,172.282329 170.048207,155.114429 171.791415,134.867236 C177.568906,134.002616 182,129.018777 182,123 L182,110 C182,108.014986 181.518028,106.142543 180.664726,104.493312 C177.966605,103.690064 174.99573,101.441351 172.020377,98.1699971 C172.014093,98.168288 172.007452,98.1671676 172.000809,98.1660527 L172.000578,98.1482144 C165.15458,90.6107624 158.28802,77.6643047 154.667387,64.4375583 C143.684062,66.1119495 130.513428,67.0867832 116.353789,67.0867832 C101.904694,67.0867832 88.4854522,66.0716864 77.3682241,64.3343642 C73.7552209,77.6016095 66.866618,90.6012163 59.9999953,98.157119 L59.9892086,98.168984 C57.0099506,101.444841 54.0351552,103.695415 51.3340398,104.498009 C50.4813871,106.144815 50,108.016191 50,110 L50,123 C50,129.018777 54.4310943,134.002616 60.2090181,134.867253 C61.9518263,155.114813 74.4692242,172.28298 91.9999836,180.610943 L92.0008985,190.053738 C88.1685679,191.949384 83.9416396,193 79.5,193 C71.8782716,193 64.8887736,189.9064 59.4404323,184.757974 C57.9793713,184.918272 56.4980483,185 55,185 C36.6103527,185 20.7410963,172.684098 13.3790205,154.885043 C7.10065151,149.815506 3,141.455043 3,132 C3,130.214422 3.14624584,128.467881 3.42579502,126.775169 C1.21399074,120.338641 0,113.33094 0,106 C0,93.1343029 3.73906251,81.2641732 10.0459772,71.7247909 C10.0153983,71.1546748 10,70.5793925 10,70 C10,59.0424751 15.5074523,49.5550466 23.5313399,44.9560196 C30.8407364,27.3683293 46.2599969,14.9903952 64.3034353,14.0567145 C68.7263913,9.07451734 74.7990304,6 81.5,6 C82.4523328,6 83.3919748,6.06209822 84.315995,6.18294489 C94.0923112,2.19599113 104.789705,0 116,0 Z" id="path-ezftm2ic8q-1"></path>
    </defs>
    <g id="Symbols" stroke="none" stroke-width="1" fill="none" fill-rule="evenodd">
        <g id="Top/Long-Hair/Fro" transform="translate(-17, 0)">
            <path d="M97.3896087,42.3923264 L97.6600667,42.3552736 C108.092944,40.9148773 120.303301,40.0867832 133.353789,40.0867832 C146.22875,40.0867832 158.286026,40.8927515 168.625585,42.2974868 C168.784462,39.3360234 169.135904,36.5955784 169.664169,34.1136218 C187.353925,45.9529372 199,66.1164253 199,89 L199.000943,109.776662 C189.979334,108.708028 177.129658,89.3918961 171.667447,69.4377806 C160.684858,71.1118906 147.513856,72.0867832 133.353789,72.0867832 C118.904694,72.0867832 105.485452,71.0716864 94.3682241,69.3343642 C88.9221194,89.3305412 76.0374039,108.71764 66.9996991,109.777607 L67,89 C67,66.1129662 78.6495962,45.9468414 96.3425686,34.1078455 C96.8779113,36.6183015 97.2315579,39.3923929 97.3896087,42.3923264 Z" id="Shadow" fill-opacity="0.16" fill="#000000"></path>
            <g id="Hair" transform="translate(17, 0)">
                <mask id="mask-ezftm2ic8q-2" fill="white">
                    <use xlink:href="#path-ezftm2ic8q-1"></use>
                </mask>
                <use fill="#314756" xlink:href="#path-ezftm2ic8q-1"></use>
                <g id="↳-💈Hair-Color" mask="url(#mask-ezftm2ic8q-2)" fill="#4A312C">
                    <g transform="translate(-16, 0)" id="Color">
                        <rect x="0" y="0" width="264" height="280"></rect>
                    </g>
                </g>
            </g>
        </g>
    </g>
</svg>