<svg width="116px" height="66px" viewBox="0 0 116 66" version="1.1" xmlns="http://www.w3.org/2000/svg" xmlns:xlink="http://www.w3.org/1999/xlink">
    <defs>
        <path d="M1,64 C1.34685629,65.488448 2.67275588,65.2226722 3,64 C2.53726005,62.445722 6.29594493,35.2480719 16,28 C19.618222,25.4833872 39.0082164,23.2319099 58.3126144,23.245568 C77.4086061,23.2590787 96.4208396,25.5105561 100,28 C109.704055,35.2480719 113.46274,62.445722 113,64 C113.327244,65.2226722 114.653144,65.488448 115,64 C115.719178,53.7019177 115,0.274362825 58,1 C1,1.72563718 0.280821545,53.7019177 1,64 Z" id="path-tkcfwue07v-1"></path>
    </defs>
    <g id="Symbols" stroke="none" stroke-width="1" fill="none" fill-rule="evenodd">
        <g id="Top/Short-Hair/The-Caesar" transform="translate(-75, -34)">
            <g id="Hair" transform="translate(75, 34)">
                <mask id="mask-tkcfwue07v-2" fill="white">
                    <use xlink:href="#path-tkcfwue07v-1"></use>
                </mask>
                <use id="Caesar" fill="#28354B" xlink:href="#path-tkcfwue07v-1"></use>
                <g id="↳-💈Hair-Color" mask="url(#mask-tkcfwue07v-2)" fill="#4A312C">
                    <g transform="translate(-74, -34)" id="Color">
                        <rect x="0" y="0" width="264" height="280"></rect>
                    </g>
                </g>
            </g>
        </g>
    </g>
</svg>