<svg width="168px" height="152px" viewBox="0 0 168 152" version="1.1" xmlns="http://www.w3.org/2000/svg" xmlns:xlink="http://www.w3.org/1999/xlink">
    <defs>
        <path d="M6,28 C0.923687084,28.0709555 0,26.9937684 0,23 C0,17.3439836 4.0408529,6.77808536 8,2 C9.17612094,-0.170695788 11.6189856,-1.43187215 11,3 C8.3404922,11.4766099 11.4173429,27.914487 6,28 Z M120,28 C125.076313,28.0709555 126,26.9937684 126,23 C126,17.3439836 121.959147,6.77808536 118,2 C116.823879,-0.170695788 114.381014,-1.43187215 115,3 C117.659508,11.4766099 114.582657,27.914487 120,28 Z" id="path-23p2woez_--1"></path>
    </defs>
    <g id="Symbols" stroke="none" stroke-width="1" fill="none" fill-rule="evenodd">
        <g id="Top/Short-Hair/Sides" transform="translate(-49, -72)">
            <g id="Hair" transform="translate(70, 74)">
                <mask id="mask-23p2woez_--2" fill="white">
                    <use xlink:href="#path-23p2woez_--1"></use>
                </mask>
                <use id="Sides" fill="#9E7A7A" xlink:href="#path-23p2woez_--1"></use>
                <g id="↳-💈Hair-Color" mask="url(#mask-23p2woez_--2)" fill="#2C1B18">
                    <g transform="translate(-69, -74)" id="Color">
                        <rect x="0" y="0" width="264" height="280"></rect>
                    </g>
                </g>
            </g>
        </g>
    </g>
</svg>