<svg width="216px" height="214px" viewBox="0 0 216 214" version="1.1" xmlns="http://www.w3.org/2000/svg" xmlns:xlink="http://www.w3.org/1999/xlink">
    <defs>
        <path d="M130,0 C148.878945,0 164.980853,11.8899097 171.225984,28.5899895 C192.088295,32.0369637 208,50.1602929 208,72 C208,81.6675383 204.882152,90.6068643 199.597131,97.8673034 C209.650914,106.664611 216,119.590851 216,134 C216,160.509668 194.509668,182 168,182 C163.278876,182 158.716946,181.318407 154.407246,180.048254 C150.226215,183.579261 145.635407,186.64119 140.717499,189.154252 C139.157043,189.051183 137.584499,189 136,189 L132,189 L132.001014,170.610469 C149.531251,162.282329 162.048207,145.114429 163.791415,124.867236 C169.568906,124.002616 174,119.018777 174,113 L174,100 C174,95.7752616 171.816797,92.0604377 168.517051,89.9221893 C167.447189,89.5326974 166.371486,89.0427899 165.295341,88.4596813 C164.873351,88.3378454 164.441147,88.2399584 164.000809,88.1660527 L164.00094,87.7136046 C155.319987,82.4108349 146.764886,71.1752936 141.449951,56.7992877 C131.312295,58.8351061 119.547256,60 107,60 C95.038684,60 83.7882341,58.9413637 73.9808476,57.0787685 C68.75481,71.0638309 60.4641576,82.0426902 52.000575,87.4226513 L52.0001873,88.1658855 C50.9524584,88.341644 49.9507651,88.6531697 49.0138162,89.0817539 C48.9389878,89.1190122 48.8631509,89.1546383 48.7873295,89.1897884 C44.7706801,91.1284648 42,95.2406689 42,100 L42,113 C42,119.018777 46.4310943,124.002616 52.2090181,124.867253 C53.9518263,145.114813 66.4692242,162.28298 83.9999836,170.610943 L84,189 L80,189 C78.4155012,189 76.8429568,189.051183 75.28393,189.151986 C70.3645934,186.64119 65.7737854,183.579261 61.5908566,180.049243 C57.2830538,181.318407 52.7211243,182 48,182 C21.490332,182 0,160.509668 0,134 C0,119.590851 6.34908591,106.664611 16.4022802,97.8662563 C11.1178478,90.6068643 8,81.6675383 8,72 C8,50.1602929 23.9117053,32.0369637 44.7747628,28.5903656 C51.0191469,11.8899097 67.1210549,0 86,0 C94.0146516,0 101.528813,2.14285314 108.00081,5.88688533 C114.471958,2.14263328 121.98576,0 130,0 Z" id="path-ar7win3op--1"></path>
    </defs>
    <g id="Symbols" stroke="none" stroke-width="1" fill="none" fill-rule="evenodd">
        <g id="Top/Long-Hair/Curly" transform="translate(-25, -10)">
            <path d="M132,26 C142.355851,26 152.178857,26.7935247 160.993848,28.2152978 C183.449514,38.7465785 199,61.5572839 199,88 L199.000684,105.04416 C187.384418,104.670549 173.646976,90.5761449 166.301098,70.3935102 L166.451788,70.7989188 C156.31371,72.834966 144.548011,74 132,74 C120.038433,74 108.787761,72.9413193 98.9802296,71.0786512 L99.2335907,70.3935102 C91.9856565,90.3070459 78.5154621,104.29362 66.999761,105.021917 L67,88 C67,61.1724497 83.0064081,38.0833962 105.99012,27.7619438 C114.017818,26.6264682 122.798575,26 132,26 Z" id="Shadow" fill-opacity="0.16" fill="#000000"></path>
            <g id="Hair" transform="translate(25, 10)">
                <mask id="mask-ar7win3op--2" fill="white">
                    <use xlink:href="#path-ar7win3op--1"></use>
                </mask>
                <use id="Curly!" fill="#314756" xlink:href="#path-ar7win3op--1"></use>
                <g id="↳-💈Hair-Color" mask="url(#mask-ar7win3op--2)" fill="#4A312C">
                    <g transform="translate(-24, -10)" id="Color">
                        <rect x="0" y="0" width="264" height="280"></rect>
                    </g>
                </g>
            </g>
        </g>
    </g>
</svg>