<svg width="168px" height="258px" viewBox="0 0 168 258" version="1.1" xmlns="http://www.w3.org/2000/svg" xmlns:xlink="http://www.w3.org/1999/xlink">
    <defs>
        <path d="M148,197.608051 C135.525121,187.236892 119.490913,181 102,181 L98,181 L98,162.610951 C115.530782,154.282984 128.048193,137.114792 129.791419,116.867187 C135.569129,116.002364 140,111.018625 140,105 L140,92 C140,87.3536213 137.359271,83.3240177 133.496777,81.3301515 C132.723933,81.0500337 131.951808,80.748163 131.180891,80.4262497 C130.794819,80.3202581 130.400778,80.2331546 130,80.1659169 L130.000458,79.9172528 C117.224481,74.2339715 104.877985,63.0706967 96.1104311,47.8848473 C93.1752556,42.8009742 90.8310687,37.5951441 89.0661426,32.3970356 C80.4313947,42.9409152 67.7445474,53.6023901 52.3415164,62.4953343 C42.777598,68.0170651 33.1467898,72.2910056 24,75.2659587 L24.0003852,137.246608 C29.6019576,148.318362 38.7728825,157.277529 50,162.610951 L50,181 L46,181 C38.3273639,181 30.9350359,182.200142 24.0004995,184.422941 L24,230 C24,244.105888 13.5691766,255.775526 0,257.716445 L0,74 C0,33.1309285 33.1309285,0 74,0 C114.869071,0 148,33.1309285 148,74 Z" id="path-c5f-x7930v-1"></path>
    </defs>
    <g id="Symbols" stroke="none" stroke-width="1" fill="none" fill-rule="evenodd">
        <g id="Top/Long-Hair/Straight" transform="translate(-49, -18)">
            <g id="Hair" transform="translate(59, 18)">
                <mask id="mask-c5f-x7930v-2" fill="white">
                    <use xlink:href="#path-c5f-x7930v-1"></use>
                </mask>
                <use id="Mask-Hair" fill="#944F23" xlink:href="#path-c5f-x7930v-1"></use>
                <g id="↳-💈Hair-Color" mask="url(#mask-c5f-x7930v-2)" fill="#A55728">
                    <g transform="translate(-58, -18)" id="Color">
                        <rect x="0" y="0" width="264" height="280"></rect>
                    </g>
                </g>
            </g>
            <path d="M207,215.608051 C194.525121,205.236892 178.490913,199 161,199 L157,199 L157,180.610951 C174.530782,172.282984 187.048193,155.114792 188.791419,134.867187 C194.569129,134.002364 199,129.018625 199,123 L199,110 C199,105.353621 196.359271,101.324018 192.496777,99.3301515 C197.367935,101.106406 202.259898,102.071905 207,102.148232 Z M82.999376,155.244613 C88.6008561,166.317285 97.7722083,175.277209 109,180.610951 L109,199 L105,199 C97.3269953,199 89.9343257,200.200257 82.9995003,202.423262 Z M188.999466,97.9168114 C189.392897,98.0918351 189.786736,98.261662 190.180891,98.4262497 C189.794819,98.3202581 189.400778,98.2331546 189,98.1659169 Z" id="Shadow" fill-opacity="0.24" fill="#000000"></path>
        </g>
    </g>
</svg>