<svg width="187px" height="224px" viewBox="0 0 187 224" version="1.1" xmlns="http://www.w3.org/2000/svg" xmlns:xlink="http://www.w3.org/1999/xlink">
    <defs>
        <path d="M76.3331882,10.4628367 C76.9137424,7.69455926 76.4475113,-0.492764683 81.1879964,0.0233349851 C85.0314735,0.441445987 81.4218191,3.79726501 80.7256589,5.08595261 C79.876509,6.65923677 80.3338947,8.84621888 80.0771587,10.6065013 C83.364323,9.74958849 82.7941498,9.19327834 83.5854252,6.15758165 C83.8958015,4.9680539 84.7804466,2.10647253 86.0261697,1.61691959 C89.3297809,0.319448146 88.9932888,2.7857484 88.3015119,5.06074213 L88.2095353,5.35607046 C87.8980302,6.33471475 87.5463613,7.24468863 87.4245062,7.76092608 C90.1353523,7.6410754 93.1402627,11.9174413 95.6691727,9.75271164 C97.031157,8.58855944 96.1010516,5.40060944 98.2500992,4.75060494 C99.9590183,4.23411488 100.663044,6.16656069 100.304676,7.66059506 C100.877713,7.60828238 102.885296,7.799575 103.355021,8.20948774 C104.312204,9.04610014 103.680648,10.8501066 104.381766,11.3369268 C106.402711,12.7415612 112.701004,8.10642397 114.282756,6.69671451 C114.744199,6.28590086 115.681841,5.08797489 116.760647,3.94997537 L117.033096,3.66721414 C118.820606,1.84375359 120.907153,0.364928941 121.855094,2.8653967 C122.399415,4.30399525 119.848493,8.69357518 119.467423,10.1091405 C118.919891,12.1450405 118.138071,14.7079712 118.647561,16.7751026 C119.599928,15.6019713 121.293397,13.448563 121.988704,12.004499 C122.708203,10.5112454 122.329503,8.38945896 123.682122,7.11833905 C126.995497,4.01203213 127.39562,6.98586517 127.214131,10.1526479 L127.192566,10.4924162 C127.180778,10.6624014 127.167558,10.8323368 127.153268,11.0013175 L127.123364,11.3377376 C126.972947,12.9550225 126.744718,14.4267014 126.762486,14.9351799 C128.507084,14.2133431 130.456777,14.0782671 131.680174,15.6730229 C132.817064,17.1557359 131.646423,18.2285361 132.745372,19.2693241 C133.663707,18.3697197 133.470101,16.4418966 133.256799,14.4173879 L133.212745,13.9974501 C132.885605,10.8421524 132.692417,7.60873955 136.714154,7.77771298 C138.176249,7.83939509 139.521287,8.64672801 138.699701,10.5498943 C138.200031,11.7078002 137.073558,10.9742516 136.520803,12.0087933 C135.29832,14.3004008 137.763741,20.0192692 137.555716,22.7360147 C140.091904,22.4795265 140.175628,20.6196938 140.789049,18.7364375 C141.471891,16.6443209 142.95772,13.6238495 145.2945,16.2125461 C146.663012,17.7307849 145.315305,22.3600662 145.407913,24.5603216 C145.468923,26.0067281 145.57044,27.4527441 145.655991,28.8975889 C146.966535,28.2315783 148.695236,24.958913 150.755804,27.2056252 C151.717562,28.2546115 149.878539,32.2772219 150.985494,32.7702884 C151.481865,31.2813291 151.173373,26.8456828 152.06891,25.5866651 C154.318536,22.4287754 155.459059,27.1091981 155.331481,28.8503513 C155.27969,29.5587511 155.075352,30.3537799 154.843712,31.1589811 L154.743131,31.5044673 C153.964797,34.1545512 153.084883,36.7965383 156.546177,36.7183337 C160.604934,36.6265913 158.858129,32.1374612 159.703512,29.2516754 C160.195301,27.5757179 161.389659,24.7192116 163.546466,26.0840259 C165.31836,27.2060156 164.114962,28.45176 163.920134,29.8505384 C163.549887,32.5063826 163.413049,35.0454993 163.186097,37.7423348 C166.575417,35.355081 166.819045,40.5238856 166.669221,42.5269926 C166.529338,44.4051737 164.602506,51.1718572 166.081721,51.4935411 C166.456472,51.5751333 167.767833,50.323533 168.576831,50.3754553 C170.198398,50.4792998 170.861461,51.5731813 170.637754,53.3037939 C170.392027,55.207741 165.620359,59.6336275 167.354151,61.6554733 C167.481496,61.8046035 170.125896,61.5734908 170.302082,61.4622287 C171.519076,60.6935447 172.07606,58.1758997 172.440664,56.6162793 C172.918922,54.5725714 171.724815,48.2755308 175.118415,49.6165311 C177.605245,50.5995409 176.170088,56.1298495 175.629329,58.1778516 C174.740084,61.5524095 171.737261,64.1977131 172.525841,67.608968 C172.993447,66.1289878 174.690293,61.8139729 176.465593,64.9570277 C177.190719,66.2433729 175.978715,68.6739603 175.522623,70.0032488 C174.992708,71.5499862 172.923099,74.6707886 172.991008,76.2507095 C173.095791,78.6883239 173.199533,76.9046179 175.238294,78.4419859 C175.729666,76.7176196 175.988608,73.3450137 176.919931,72.0153348 C178.355898,69.967723 180.162561,70.057123 180.708517,72.5829664 C181.079608,74.3018671 178.635221,81.0771393 177.758771,82.7050785 C178.870779,81.7013778 182.244616,77.9719526 183.551013,80.6153042 C184.275583,82.0835727 183.373237,82.3806618 182.804663,83.2477249 C181.122531,85.8176826 175.17003,88.2904324 175.591269,91.6482034 C177.383839,90.9736042 181.203002,90.8666365 180.67198,94.0499017 C180.211017,96.8166176 176.930155,95.9749301 175.237767,96.9915137 C177.112955,96.5335826 181.952817,95.619282 182.515816,98.6011044 C183.230278,102.394554 177.79234,101.136708 175.950562,101.597371 C177.22313,104.1482 179.717195,106.166532 182.208315,107.158911 C183.193837,107.552037 185.137049,107.742159 185.67495,108.813788 C186.934752,111.318244 184.316858,111.84478 181.526418,112.128238 L181.096258,112.170163 C181.024505,112.176909 180.952763,112.183553 180.881094,112.190126 L180.452472,112.22893 C178.674407,112.388958 177.020632,112.540497 176.467109,113.140514 C177.396605,114.146948 179.037272,115.426656 177.742225,117.034295 C181.381252,118.556438 182.806036,121.517569 183.364612,125.543693 C183.401398,125.809161 183.424988,126.181996 183.429191,126.61271 L183.429336,126.877688 C183.407676,129.453437 182.715894,133.588065 180.207508,130.116368 C179.400215,129.001405 179.612624,126.110544 179.140297,124.762907 C178.501504,122.944066 176.178665,119.993084 173.890225,120.718825 C170.89879,121.667871 178.111059,127.812658 177.404406,130.612948 C176.543746,134.032715 175.096755,132.576346 173.881642,130.983852 L173.713678,130.761237 C173.103934,129.945241 172.564848,129.151322 172.206,129.014288 C172.731819,131.833707 169.622984,135.99803 170.567003,137.868403 C170.962455,138.651922 172.851533,139.287873 173.478827,140.295477 C174.059985,141.228907 175.050449,143.548232 174.928748,144.633135 C174.419542,149.169502 172.103838,145.707106 171.222117,143.992109 C170.13091,141.873446 170.263178,141.804346 167.966582,141.555666 C166.462257,141.392482 163.413669,141.041128 162.554381,142.176001 C162.617136,142.092778 162.463111,143.267026 162.283661,144.493356 L162.215549,144.953316 C162.032732,146.173831 161.84841,147.295753 161.853937,147.113692 L161.859064,147.240034 C161.960642,148.14665 163.419895,148.63721 162.95061,150.127527 C162.495834,151.571982 160.792178,152.307873 159.706723,151.14333 C159.340419,153.270972 159.678802,152.06661 161.181077,153.276828 C161.384202,153.440598 161.666515,153.580383 161.960651,153.726854 L162.182417,153.83844 C162.995969,154.255698 163.771571,154.781501 163.10825,156.053694 C162.056295,158.072417 158.584855,155.129634 157.398137,155.187802 C155.254913,155.292428 154.108583,157.895569 152.848916,159.689035 C151.308063,161.884996 149.356221,162.768846 147.651918,164.434653 C148.428013,164.951924 159.522305,167.44029 155.089787,169.887664 C153.172487,170.947581 147.387236,168.73171 145.642135,167.571852 C145.563369,171.165421 146.500469,171.843533 148.024863,174.616105 C148.803043,176.034013 150.534993,182 147.428222,182 C145.247,182 146.012313,178.819858 145.478876,177.405464 C145.140008,176.50834 144.414366,176.040649 143.956619,175.261034 C142.191903,172.260864 142.862922,169.494538 142.311896,166.167999 C142.166089,165.289848 141.96453,164.47122 141.755564,163.663497 C147.99234,155.386048 151.985482,145.322081 152.831543,134.376034 C157.579863,132.776771 161,128.287793 161,123 L161,110 C161,104.964614 157.898584,100.653603 153.501783,98.8729974 C152.970496,99.2477013 152.23272,98.8741774 152,98.0318338 C152.46274,96.526107 148.704055,70.1780326 139,63.1563695 C135.42084,60.7446886 116.408606,60.5635409 97.3126144,60.5504522 L96.7334726,60.5501156 C96.5404274,60.5500243 96.3473895,60.5499544 96.1543747,60.5499081 L94.9966907,60.5499295 C76.4822517,60.5553235 58.4734931,60.8158884 55,63.1563695 C45.2959449,70.1780326 41.5372601,96.526107 42,98.0318338 C41.7673702,98.873851 41.0300762,99.2474117 40.4985792,98.875034 C36.1014161,100.653603 33,104.964614 33,110 L33,123 C33,128.288115 36.4205527,132.777317 41.1698127,134.37576 C42.1997823,147.718972 47.9073425,159.751229 56.6545296,168.836196 C56.3320422,169.525934 55.622665,169.435473 55.3468697,170.07271 C55.3356677,170.098476 54.6931475,172.74417 54.7822568,172.609485 C54.0114437,173.77676 53.0103456,173.688921 51.9872076,174.195261 C50.5714284,174.896017 49.4285338,176.192512 47.7210266,176.087887 C47.3835007,176.067196 45.8972683,175.647914 45.7732734,175.678365 C45.2188422,174.627817 44.712395,174.701211 44.2542196,175.898937 C43.9803807,176.413865 43.7062927,176.928403 43.4326768,177.443722 C42.7562908,178.242857 43.008912,179.689263 41.3837473,179.20908 C37.0221866,177.920783 44.1404008,170.681333 46.6413081,170.561482 C45.222862,167.210738 44.0760798,165.639406 40.9122645,164.344472 C38.6803216,163.431343 35.8579788,163.072962 34.3203529,160.740363 C33.4406255,159.407952 33.1549566,158.211397 33.7876434,156.661927 C34.3317238,155.329905 36.8900419,154.785698 37.0806939,153.833919 C37.301235,152.734182 32.6420388,149.851129 31.6318019,148.569078 C29.604919,146.000291 29.2527527,142.493 25.7496614,142.923213 C22.7169752,143.295258 22.5082405,147.54781 20.3316507,148.295803 C14.014345,150.469695 20.4168846,141.672913 22.728765,139.303803 L22.8885281,139.143982 C22.9646117,139.069913 23.034822,139.004789 23.098365,138.949431 L23.1440963,138.91 L23.0903283,138.926748 C20.5600386,139.66429 14.3680056,141.038369 13.0786076,137.500234 L13.0097195,137.290621 C12.2368542,134.671706 13.4831652,134.795839 14.762591,135.153734 L14.9645913,135.211821 C15.435216,135.350182 15.8961474,135.502346 16.2480678,135.542832 C18.8477815,135.842653 20.9696368,135.690791 23.5253695,134.93577 C21.328009,133.54519 16.5600021,129.760719 17.6048295,126.674272 C18.5579112,123.867833 20.0557575,125.050724 21.3352781,126.632777 L21.5254733,126.87263 C21.5568678,126.912955 21.5881021,126.953417 21.619164,126.99396 L21.8033739,127.237746 C22.3795564,128.009975 22.8849577,128.771012 23.2377959,129.136091 C23.9404919,126.650458 25.9286815,125.412912 27.9404633,124.415457 C24.4247131,124.380712 21.0634173,123.177911 18.2658233,120.739516 C14.7956022,122.001266 11.5636759,120.776994 8.31806645,119.133048 C7.1521321,118.543555 4.82030298,117.777604 4.28187338,116.365942 C3.50714906,114.33785 4.86832034,113.256461 6.48191847,113.343909 C9.44069672,113.504361 12.7691062,118.433464 16.0678004,117.11862 C16.5976214,116.907417 16.4875948,115.464915 17.3157029,115.190078 C17.8260425,115.020647 18.5290809,115.331791 18.9332619,115.176024 C19.4893606,114.962089 19.4216552,115.995069 20.0353361,115.585546 C18.3720966,114.086046 16.6502186,113.127241 15.2570206,111.263504 C14.5506213,110.319534 14.1501828,108.989074 13.4385893,108.120059 C12.8005957,107.342006 11.5823428,106.981673 11.003339,106.125931 C9.16499332,103.411918 10.2619363,102.05257 13.2017458,102.613565 C13.8353612,102.734196 16.8931801,103.937778 17.3124291,104.492136 C19.1191629,101.97332 21.8129983,98.7732678 20.3954288,95.1781378 C20.0019971,94.1826354 18.1406712,92.8638875 17.4378821,91.9242113 C16.6409799,90.859219 16.1532654,89.4217916 15.3182307,88.4286316 C14.198865,87.0989527 12.4468385,86.1721595 10.6783285,86.1030599 C6.99233616,85.9593953 6.54565844,89.3249741 4.0949367,91.063785 C2.03522104,92.5273687 0.433581882,91.7946008 1.19123199,88.9213077 C1.809527,86.5809011 5.12707484,84.0898028 7.09694168,83.2707581 C9.76564295,82.1620417 12.8451619,82.9775728 15.2071591,83.5889284 C16.5566308,83.9387206 16.830792,83.3870952 18.2972545,84.4567723 C19.8941915,85.6220957 19.4819334,86.7425238 21.8496116,87.4998864 C20.5363542,82.427509 17.8734551,80.3759933 13.6493116,78.5079623 C12.4125819,77.9610216 7.67255627,75.2239756 11.1123314,73.8095815 C11.9860935,73.4504198 16.4523462,75.5265303 17.3583008,75.9707976 C16.6185854,74.4088349 15.0865685,71.7213688 15.9842104,70.148475 C17.308498,67.8307112 19.2330959,69.6940575 19.730271,71.5921487 C19.9981829,68.0411331 17.8464603,62.9714884 13.763287,62.7450604 C12.832745,62.6934329 11.8920396,63.4975809 10.9700317,64.288485 L10.6940191,64.5244898 C9.45474637,65.5769027 8.25480966,66.4467996 7.16521769,64.996067 C3.36588279,59.9510171 18.1321771,57.1944514 21.5613192,60.4944442 C21.6760556,59.5774109 21.9195752,58.6368719 22.1673418,57.6952051 L22.331782,57.0675058 C22.8458464,55.0808173 23.2554985,53.111265 22.3890054,51.3693961 C20.9020846,48.3856217 19.1118632,47.2226407 18.6111593,43.6353185 C18.3438318,41.7216116 18.7294809,35.5639414 22.017351,38.8436337 C23.1404237,39.9656235 22.7491426,42.3411654 23.8253733,43.8305151 C24.378271,44.5964663 25.4350389,45.6056325 26.2928172,45.9077967 C26.8597232,40.8604044 25.7628153,35.687696 23.3441752,31.4035222 C23.3184294,31.3579763 23.2912475,31.3075755 23.2628304,31.2526718 L23.1740738,31.0748037 C22.1307185,28.9138432 19.8915094,21.9543393 24.3487748,24.0297774 C25.8867201,24.7465391 25.4417603,27.8938883 26.6642795,29.0186108 C27.3301947,29.6315279 33.9115906,32.848367 34.9351609,32.1593232 C35.6651905,31.6682087 37.6814572,26.1886512 38.2998862,25.2263323 C39.0417626,24.0719399 42.4186453,18.1910583 43.6123112,22.3561622 C44.2482173,24.5790605 41.0431153,26.9417195 41.8428337,29.7357629 C43.310101,28.5232019 45.1988562,27.6534061 46.1779169,25.8763368 C46.2775743,25.6957149 46.372707,25.3687607 46.4758697,24.9633881 L46.5712232,24.5792134 C47.0840428,22.4815498 47.8574439,19.1016893 50.1948883,21.4906608 C50.6468605,18.7543956 50.3931233,16.0052474 50.0116201,13.3177814 C49.6590375,10.8387852 47.8009276,3.86128948 51.3078111,2.86461591 C54.0417555,2.08861382 54.0427766,4.46334338 53.8506582,6.59135393 L53.8221731,6.89331023 C53.7685472,7.44247463 53.7099689,7.96361817 53.6920659,8.39570525 C53.5723002,11.2974971 54.7243438,16.0478003 57.1484939,17.9212967 C58.9543722,19.318904 58.3962141,19.1568908 59.9693808,17.0979577 C61.2224184,15.460649 62.1474037,13.4950198 62.9428241,11.5742858 C63.4388415,10.377731 63.8604755,9.23622158 63.9388761,7.95573223 C64.0256621,6.54407081 62.5963925,4.71468878 63.8882057,3.47753307 C68.4061862,-0.841776108 67.3001674,13.2963097 66.8533479,14.7153886 L67.1277802,14.3696025 C67.1737111,14.3117535 67.2197429,14.2538222 67.2658826,14.1958489 L67.544072,13.8478264 C69.8740505,10.9487954 72.5091393,8.14567622 76.3331882,10.4628367 Z" id="path-k9sr3ss6a2-1"></path>
    </defs>
    <g id="Symbols" stroke="none" stroke-width="1" fill="none" fill-rule="evenodd">
        <g id="Top/Short-Hair/Dreads-02" transform="translate(-36, 0)">
            <g id="Hair" transform="translate(36, 0)">
                <mask id="mask-k9sr3ss6a2-2" fill="white">
                    <use xlink:href="#path-k9sr3ss6a2-1"></use>
                </mask>
                <use id="Dreads" fill="#2E3257" xlink:href="#path-k9sr3ss6a2-1"></use>
                <g id="↳-💈Hair-Color" mask="url(#mask-k9sr3ss6a2-2)" fill="#2C1B18">
                    <g transform="translate(-35, 0)" id="Color">
                        <rect x="0" y="0" width="264" height="280"></rect>
                    </g>
                </g>
            </g>
        </g>
    </g>
</svg>