<svg width="188px" height="205px" viewBox="0 0 188 205" version="1.1" xmlns="http://www.w3.org/2000/svg" xmlns:xlink="http://www.w3.org/1999/xlink">
    <defs>
        <path d="M40,18 C47.9231015,8.50878211 69.6952966,0.550643437 94.0001685,1 C118.30504,1.44935656 140.861928,6.81215989 149.000169,17 C161.324059,32.4276364 186.868727,91.0786423 187.000841,126 C187.093514,150.800049 177.46255,175.65995 164.000169,177 C152.920557,178.102868 137.475641,175.511355 118.000132,173.997352 L118.000016,161.610943 C136.919586,152.623228 150,133.339161 150,111 L149.999122,82.98779 C140.477566,78.12988 131.8619,72.2471696 124.152126,65.3396588 C127.361735,70.6361155 130.848476,75.1472289 134.61311,78.8730846 C107.595804,71.2926736 86.1047152,58.4496262 70.139845,40.3439424 C62.1600729,56.809101 51.4464021,69.8141861 38.0000981,79.3594824 L38,111 C38,133.338858 51.0800593,152.622705 69.9992145,161.610578 L69.9991535,174.745766 C50.3621295,177.434364 34.6408296,182.16349 23.3845374,181.000327 C9.16164761,179.530612 1.49623627,150.795665 1,126 C0.382878875,95.1640258 29.3189583,30.7950013 40,18 Z" id="path-99cnq1mqkh-1"></path>
    </defs>
    <g id="Symbols" stroke="none" stroke-width="1" fill="none" fill-rule="evenodd">
        <g id="Top/Long-Hair/Bob" transform="translate(-39, -19)">
            <g id="Hair" transform="translate(39, 19)">
                <mask id="mask-99cnq1mqkh-2" fill="white">
                    <use xlink:href="#path-99cnq1mqkh-1"></use>
                </mask>
                <use id="Combined-Shape" fill="#E6E6E6" xlink:href="#path-99cnq1mqkh-1"></use>
                <g id="↳-💈Hair-Color" mask="url(#mask-99cnq1mqkh-2)" fill="#2C1B18">
                    <g transform="translate(-39, -19)" id="Color">
                        <rect x="0" y="0" width="266" height="280"></rect>
                    </g>
                </g>
            </g>
        </g>
    </g>
</svg>