<svg width="264px" height="280px" viewBox="0 0 264 280" version="1.1" xmlns="http://www.w3.org/2000/svg" xmlns:xlink="http://www.w3.org/1999/xlink">
    <defs>
        <path d="M121.317306,19.3731338 C123.554531,18.4499341 125.188025,19.4100685 126.832881,20.4081372 L127.262636,20.6681501 C128.5551,21.44349 129.887282,22.14378 131.554013,21.8844657 C134.443268,21.434843 135.223305,21.067662 137.830761,22.7115333 C140.361692,24.3070651 140.96306,23.1664535 143.828996,23.1436082 C145.853806,23.128378 147.093982,24.8202575 148.787729,24.9967295 C149.632467,25.085131 150.441078,24.2050888 151.347562,24.2603811 C154.58496,24.4567186 154.789576,28.6430444 157.361562,29.7955753 C159.711524,30.8487786 162.474332,29.3691289 164.806559,29.0953159 C168.572324,28.6533813 168.13946,30.8315227 167.46237,33.2748573 L167.324867,33.7663624 C167.017277,34.8633525 166.713518,35.9817156 166.760755,36.914713 C168.994451,37.4358517 171.261648,35.3509661 173.485163,35.7347015 C176.706507,36.2909094 175.845588,39.4067945 175.055267,41.8067883 L174.952924,42.1155018 C174.91917,42.2168736 174.885892,42.3166228 174.853429,42.4144804 C177.279589,42.3707762 183.612828,39.6776748 185.184725,43.1220237 C185.995306,44.8980006 184.106797,47.2689496 184.13767,49.0743937 C184.181023,51.615855 186.048513,53.7186196 186.709327,56.1240021 C187.601032,59.3710203 188.871834,68.0740038 186.636742,70.9565876 C185.890663,71.9188016 180.795829,69.217693 178.671174,68.0439722 C160.825581,58.1840558 157.361562,55.0486831 129.245707,55.4578453 C101.129853,55.8670074 81.8674779,69.0400225 80.7839818,70.3874406 C80.0301584,71.3248831 79.0677773,73.8279219 78.2764086,80.8005402 C78.057741,82.7271847 77.9766213,85.0762007 77.913295,87.4667524 L77.8868954,88.4927073 C77.7366244,94.4223093 77.5905576,100.273003 75.6304859,100.262632 C74.2402693,100.255262 73.4700783,92.5283531 73.2597436,84.1380855 L73.2396683,83.2527542 L73.223713,82.3643516 L73.2118621,81.4747066 C73.2102282,81.3264305 73.2087646,81.1781788 73.207471,81.0299897 L73.2017475,80.1419103 C73.2011328,79.9941237 73.2006875,79.8464759 73.2004112,79.699005 L73.20078,78.8166061 C73.2131406,74.2716594 73.3873506,69.9698917 73.7137309,67.0463924 C73.8753757,65.5984852 74.4983655,63.0083957 74.0474223,61.7058802 C73.6532986,60.5682485 71.7253768,60.5705662 72.0331217,58.6750651 C72.2429926,57.3804296 73.1101436,57.2484034 73.9749535,57.1270808 L74.2622319,57.0854562 C74.7378686,57.0114755 75.1901621,56.9012955 75.5060085,56.5574014 C77.3005851,54.602966 74.5321945,54.1404306 74.0730403,52.4306721 C73.4880481,50.2522767 74.8534857,49.45944 76.374493,48.7719658 L77.1396512,48.4310821 C79.1060001,47.5437559 78.8504766,48.3231462 80.4463492,46.5849138 C78.3147968,45.0224912 77.543628,42.8939014 80.4624425,41.7519655 C81.7019616,41.2669159 84.9268789,41.9089031 85.8980654,41.1801698 C86.1512899,40.9901231 86.251463,39.9008308 86.4074703,39.6780059 C87.9583471,37.4593592 87.5757186,35.8532324 87.4183976,33.3624282 C87.2889936,31.3242265 87.3064008,29.4532263 89.7466834,29.2496048 C91.3750712,29.1138571 92.6993269,30.4441843 94.1582415,30.835866 C95.7767762,31.2705896 95.1688403,31.5877757 96.4369334,30.7150174 C98.6630755,29.1817309 97.1479982,26.1942888 98.913344,24.4120212 C101.335891,21.9662454 102.923881,25.5513084 104.868882,25.8218105 C107.454012,26.1820249 107.948447,24.7142564 108.516881,23.1612056 L108.632196,22.8499747 C108.965351,21.967858 109.368608,21.095663 110.235861,20.5504965 C111.829347,19.5496278 112.655185,20.2565693 113.362047,21.1566495 L113.53666,21.3848168 C113.565474,21.4232231 113.594175,21.4617456 113.622811,21.5002747 L113.79421,21.7306519 C114.251172,22.3405277 114.715318,22.8959956 115.378847,22.948264 C116.996068,23.0750722 119.907657,19.9545311 121.317306,19.3731338 Z M179.001547,71.3348066 C179.846064,70.2980597 180.666198,70.8995898 181.697184,71.3146953 C182.8124,71.7641482 185.6344,73.8180261 185.831676,73.928751 C187.588868,74.9173665 188.980206,84.8279256 189.047535,88.6176558 C189.08965,90.9562115 189.127358,99.8740101 186.654049,99.1031293 C185.901013,98.868423 184.751682,94.1472484 184.58821,91.3840965 C184.424737,88.6209446 182.855069,79.2200034 180.446757,74.8947261 C179.896491,73.9063366 178.320781,72.1708928 179.001547,71.3348066 Z" id="path-2a3c9zuntj-1"></path>
    </defs>
    <g id="Symbols" stroke="none" stroke-width="1" fill="none" fill-rule="evenodd">
        <g id="Top/Short-Hair/Dreads-01" transform="translate(-1, 0)">
            <g id="Hair" transform="translate(1, 0)">
                <mask id="mask-2a3c9zuntj-2" fill="white">
                    <use xlink:href="#path-2a3c9zuntj-1"></use>
                </mask>
                <use id="Dreads-With-Cut" fill="#2E3257" xlink:href="#path-2a3c9zuntj-1"></use>
                <g id="↳-💈Hair-Color" mask="url(#mask-2a3c9zuntj-2)" fill="#2C1B18">
                    <rect id="Color" x="0" y="0" width="264" height="280"></rect>
                </g>
            </g>
        </g>
    </g>
</svg>